# xmcd
#
# Track frame offsets:
# 150
# 19676
# 34631
# 91932
# 108343
# 141904
# 168943
# 196507
# 221317
# 272209
#
# Disc length: 3999 seconds
#
#
# Revision: 0
# Processed by: cddbd v1.5.2PL0 Copyright (c) Steve Scherf et al.
# Submitted via: Nero 7, 11, 10, 0 
#
DISCID=7b0f9d0a
DTITLE=The Hoax - Not Miming Vol 2 (Live 1996)
DYEAR=1996
DGENRE=Blues
TTITLE0=Fistful Of Dirt
TTITLE1=Let It Ride
TTITLE2=I'll Take Care Of You
TTITLE3=Turn It Upside Down
TTITLE4=Driving Blind
TTITLE5=Automatic
TTITLE6=Realisation Dawns
TTITLE7=Will Be True
TTITLE8=Demolition Blues
TTITLE9=Unbekann
EXTD=
EXTT0=Fistful Of Dirt
EXTT1=Let It Ride
EXTT2=I'll Take Care Of You
EXTT3=Turn It Upside Down
EXTT4=Driving Blind
EXTT5=Automatic
EXTT6=Realisation Dawns
EXTT7=Will Be True
EXTT8=Demolition Blues
EXTT9=Unbekann
PLAYORDER=
